<?xml version="1.0" encoding="utf-8"?>
<svg width="76px" height="76px" viewBox="7.65 0.052 48 48" xmlns="http://www.w3.org/2000/svg">
  <path fill-opacity="1" stroke-width="0.2" stroke-linejoin="round" d="M 44.177 35.745 C 44.177 40.357 38.57 44.098 31.65 44.098 C 24.732 44.098 19.123 40.357 19.123 35.745 C 19.123 31.311 24.304 27.685 30.848 27.41 L 31.233 27.394 C 32.9 27.394 32.486 25.723 29.786 22.192 C 25.607 21.33 22.045 18.883 22.045 14.446 C 22.045 9.639 26.158 4.439 30.864 4.041 L 30.815 4.006 L 31.65 4.006 L 44.177 4.006 C 44.177 4.006 40.413 5.889 38.888 7.538 C 40.837 9.017 42.09 10.643 42.09 12.777 C 42.09 16.578 39.116 19.729 35.826 21.129 C 34.739 24.639 39.167 27.394 42.05 31.085 C 43.393 32.416 44.177 34.02 44.177 35.745 Z M 30.815 30.316 C 25.282 30.316 24.133 33.35 24.133 36.582 C 24.133 39.087 27.475 40.339 31.65 40.339 C 37.186 40.339 40.42 38.974 40.42 35.745 C 40.42 32.518 37.497 30.734 30.815 30.316 Z M 30.815 6.513 C 27.124 6.513 26.64 9.506 26.64 13.193 C 26.64 16.885 28.377 19.876 32.068 19.876 C 35.759 19.876 36.66 16.885 36.66 13.193 C 36.66 9.506 34.503 6.513 30.815 6.513 Z" style="fill: rgb(255, 255, 255);"/>
</svg>