<?xml version="1.0" encoding="utf-8"?>
<svg width="76px" height="76px" viewBox="0 0 48 48" xmlns="http://www.w3.org/2000/svg">
  <path fill-opacity="1" stroke-width="0.2" stroke-linejoin="round" d="M 47.551 8.248 C 47.551 8.248 40.233 8.248 37.798 8.248 L 37.101 8.368 L 37.101 9.301 C 37.101 9.412 37.437 9.504 37.528 9.574 C 37.615 9.648 37.854 9.688 37.952 9.688 L 38.837 9.732 C 39.839 9.778 40.142 9.999 40.534 10.366 C 40.914 10.742 40.979 11.387 40.681 12.295 L 32.06 34.796 L 31.734 34.703 L 26.255 22.385 C 26.337 22.195 26.384 22.096 26.384 22.096 L 30.867 12.882 C 31.387 11.906 31.893 11.042 32.15 10.635 C 32.616 9.897 32.848 9.759 34.121 9.694 C 34.383 9.694 34.48 9.563 34.48 9.307 L 34.48 8.375 L 34.418 8.274 C 34.418 8.274 29.059 8.253 26.62 8.274 L 26.62 8.368 L 26.62 9.301 C 26.62 9.417 26.556 9.504 26.643 9.574 C 26.735 9.653 26.773 9.688 26.872 9.688 L 27.238 9.738 C 28.236 9.785 28.681 10.067 28.815 10.251 C 29.055 10.57 29.168 10.917 28.592 12.301 L 25.139 19.858 L 22.019 12.844 C 20.997 10.607 20.743 9.909 22.285 9.785 L 22.7 9.688 C 22.996 9.688 22.949 9.568 22.949 9.349 L 22.949 8.368 L 22.918 8.285 C 22.918 8.285 17.204 8.285 14.599 8.291 L 14.563 8.383 L 14.563 9.365 C 14.563 9.584 14.783 9.642 15.185 9.705 C 16.629 9.909 16.605 10.078 18.031 13.186 C 18.243 13.653 18.876 15.061 18.876 15.061 L 22.125 22.081 C 22.125 22.081 22.496 22.983 23.073 24.382 L 18.348 34.739 L 18.075 34.66 C 18.075 34.66 10.743 17.667 8.622 11.987 C 8.398 11.397 8.302 10.96 8.302 10.69 C 8.302 10.116 8.775 9.8 9.725 9.759 L 11.166 9.705 C 11.462 9.705 11.945 9.584 11.945 9.328 L 11.945 8.395 L 11.509 8.297 C 11.509 8.297 2.524 8.285 0.709 8.297 L 0.413 8.395 L 0.413 9.375 C 0.413 9.549 0.645 9.657 1.056 9.705 C 2.17 9.774 2.92 9.966 3.272 10.296 C 3.624 10.623 4.003 11.457 4.494 12.751 C 7.16 19.789 12.83 32.345 15.588 39.499 C 16.383 41.449 17.382 41.752 18.593 39.435 C 19.84 36.896 22.355 31.253 24.19 27.094 C 25.907 31.249 28.245 36.861 29.37 39.409 C 30.271 41.449 31.295 41.645 32.33 39.472 C 35.047 32.837 42.984 12.877 42.984 12.877 C 43.329 11.896 43.807 11.143 44.422 10.597 C 45.037 10.052 45.945 9.747 47.227 9.688 C 47.484 9.688 47.586 9.558 47.586 9.301 L 47.586 8.368 L 47.551 8.248 Z" style="fill: rgb(255, 255, 255);"/>
</svg>